<svg id="visual" viewBox="0 0 900 450" width="900" height="450" xmlns="http://www.w3.org/2000/svg" xmlns:xlink="http://www.w3.org/1999/xlink" version="1.1"><rect x="0" y="0" width="900" height="450" fill="#cab5de"></rect><defs><linearGradient id="grad1_0" x1="50%" y1="0%" x2="100%" y2="100%"><stop offset="10%" stop-color="#4f0761" stop-opacity="1"></stop><stop offset="90%" stop-color="#4f0761" stop-opacity="1"></stop></linearGradient></defs><defs><linearGradient id="grad1_1" x1="50%" y1="0%" x2="100%" y2="100%"><stop offset="10%" stop-color="#4f0761" stop-opacity="1"></stop><stop offset="90%" stop-color="#cab5de" stop-opacity="1"></stop></linearGradient></defs><defs><linearGradient id="grad2_0" x1="0%" y1="0%" x2="50%" y2="100%"><stop offset="10%" stop-color="#4f0761" stop-opacity="1"></stop><stop offset="90%" stop-color="#4f0761" stop-opacity="1"></stop></linearGradient></defs><defs><linearGradient id="grad2_1" x1="0%" y1="0%" x2="50%" y2="100%"><stop offset="10%" stop-color="#cab5de" stop-opacity="1"></stop><stop offset="90%" stop-color="#4f0761" stop-opacity="1"></stop></linearGradient></defs><g transform="translate(900, 0)"><path d="M0 337.5C-33.8 307.4 -67.6 277.3 -109.8 265.2C-152.1 253 -202.8 258.8 -238.6 238.6C-274.5 218.5 -295.5 172.3 -309.5 128.2C-323.5 84.1 -330.5 42 -337.5 0L0 0Z" fill="#8a61a0"></path><path d="M0 168.8C-16.9 153.7 -33.8 138.6 -54.9 132.6C-76 126.5 -101.4 129.4 -119.3 119.3C-137.3 109.2 -147.8 86.2 -154.7 64.1C-161.7 42 -165.2 21 -168.7 0L0 0Z" fill="#4f0761"></path></g><g transform="translate(0, 450)"><path d="M0 -337.5C38.6 -321.3 77.2 -305.1 120.9 -291.9C164.6 -278.8 213.4 -268.8 238.6 -238.6C263.9 -208.5 265.5 -158.3 278.1 -115.2C290.6 -72.1 314.1 -36 337.5 0L0 0Z" fill="#8a61a0"></path><path d="M0 -168.7C19.3 -160.6 38.6 -152.5 60.5 -146C82.3 -139.4 106.7 -134.4 119.3 -119.3C131.9 -104.3 132.8 -79.2 139 -57.6C145.3 -36 157 -18 168.8 0L0 0Z" fill="#4f0761"></path></g></svg>