<?xml version="1.0" encoding="UTF-8"?>
<!DOCTYPE svg PUBLIC "-//W3C//DTD SVG 1.1//EN" "http://www.w3.org/Graphics/SVG/1.1/DTD/svg11.dtd">
<svg xmlns="http://www.w3.org/2000/svg" version="1.1" width="500px" height="500px" style="shape-rendering:geometricPrecision; text-rendering:geometricPrecision; image-rendering:optimizeQuality; fill-rule:evenodd; clip-rule:evenodd" xmlns:xlink="http://www.w3.org/1999/xlink">
<g><path style="opacity:0.753" fill="#8188c6" d="M 136.5,133.5 C 146.995,132.833 157.661,132.5 168.5,132.5C 179.522,132.501 190.188,133.168 200.5,134.5C 179.242,133.512 157.909,133.178 136.5,133.5 Z"/></g>
<g><path style="opacity:0.999" fill="#5862b4" d="M 136.5,133.5 C 157.909,133.178 179.242,133.512 200.5,134.5C 226.824,210.472 253.158,286.472 279.5,362.5C 261.843,363.666 244.176,363.833 226.5,363C 220.539,346.283 214.872,329.45 209.5,312.5C 181.841,311.5 154.175,311.167 126.5,311.5C 120.965,328.773 115.631,346.106 110.5,363.5C 92.4877,363.833 74.4877,363.5 56.5,362.5C 82.8033,285.918 109.47,209.585 136.5,133.5 Z M 196.5,270.5 C 187.358,271.832 177.858,272.498 168,272.5C 158.327,272.5 148.827,272.166 139.5,271.5C 148.996,242.857 158.496,214.19 168,185.5C 177.434,213.968 186.934,242.301 196.5,270.5 Z"/></g>
<g><path style="opacity:0.647" fill="#a9add8" d="M 355.5,363.5 C 355.5,286.833 355.5,210.167 355.5,133.5C 339.5,133.5 323.5,133.5 307.5,133.5C 307.5,210.167 307.5,286.833 307.5,363.5C 306.501,286.668 306.167,209.668 306.5,132.5C 323.167,132.5 339.833,132.5 356.5,132.5C 356.833,209.668 356.499,286.668 355.5,363.5 Z"/></g>
<g><path style="opacity:0.999" fill="#5560b3" d="M 355.5,363.5 C 339.5,363.5 323.5,363.5 307.5,363.5C 307.5,286.833 307.5,210.167 307.5,133.5C 323.5,133.5 339.5,133.5 355.5,133.5C 355.5,210.167 355.5,286.833 355.5,363.5 Z"/></g>
<g><path style="opacity:0.75" fill="#8088c6" d="M 196.5,270.5 C 197.404,271.209 197.737,272.209 197.5,273.5C 177.822,273.833 158.155,273.5 138.5,272.5C 138.624,271.893 138.957,271.56 139.5,271.5C 148.827,272.166 158.327,272.5 168,272.5C 177.858,272.498 187.358,271.832 196.5,270.5 Z"/></g>
<g><path style="opacity:1" fill="#0c0c0c" d="M 441.5,319.5 C 441.427,321.027 442.094,322.027 443.5,322.5C 451.868,332.402 452.702,343.068 446,354.5C 439.639,363.761 430.805,367.761 419.5,366.5C 417.485,365.076 415.152,364.41 412.5,364.5C 410.326,364.25 408.659,363.25 407.5,361.5C 407.027,360.094 406.027,359.427 404.5,359.5C 398.433,354.328 395.433,347.662 395.5,339.5C 395.188,331.804 397.855,325.47 403.5,320.5C 405.404,320.262 406.738,319.262 407.5,317.5C 411.662,313.668 416.662,312.001 422.5,312.5C 429.979,311.945 436.313,314.279 441.5,319.5 Z"/></g>
<g><path style="opacity:0.741" fill="#787878" d="M 407.5,317.5 C 406.738,319.262 405.404,320.262 403.5,320.5C 404.262,318.738 405.596,317.738 407.5,317.5 Z"/></g>
<g><path style="opacity:0.784" fill="#868686" d="M 441.5,319.5 C 442.906,319.973 443.573,320.973 443.5,322.5C 442.094,322.027 441.427,321.027 441.5,319.5 Z"/></g>
<g><path style="opacity:0.8" fill="#838383" d="M 404.5,359.5 C 406.027,359.427 407.027,360.094 407.5,361.5C 405.973,361.573 404.973,360.906 404.5,359.5 Z"/></g>
<g><path style="opacity:0.643" fill="#707070" d="M 412.5,364.5 C 415.152,364.41 417.485,365.076 419.5,366.5C 416.848,366.59 414.515,365.924 412.5,364.5 Z"/></g>
</svg>
