<?xml version="1.0" encoding="UTF-8"?>
<!DOCTYPE svg PUBLIC "-//W3C//DTD SVG 1.1//EN" "http://www.w3.org/Graphics/SVG/1.1/DTD/svg11.dtd">
<svg xmlns="http://www.w3.org/2000/svg" version="1.1" width="364px" height="364px" style="shape-rendering:geometricPrecision; text-rendering:geometricPrecision; image-rendering:optimizeQuality; fill-rule:evenodd; clip-rule:evenodd" xmlns:xlink="http://www.w3.org/1999/xlink">
<g><path style="opacity:1" fill="#b26ded" d="M -0.5,-0.5 C 99.8333,-0.5 200.167,-0.5 300.5,-0.5C 252.805,9.80529 204.805,19.3053 156.5,28C 117.18,34.6779 79.8467,47.0112 44.5,65C 27.9448,73.7281 12.9448,84.5615 -0.5,97.5C -0.5,64.8333 -0.5,32.1667 -0.5,-0.5 Z"/></g>
<g><path style="opacity:1" fill="#a265f0" d="M 300.5,-0.5 C 321.5,-0.5 342.5,-0.5 363.5,-0.5C 363.5,19.8333 363.5,40.1667 363.5,60.5C 317.975,74.22 271.641,84.3866 224.5,91C 223.5,91.3333 222.5,91.6667 221.5,92C 222.737,92.2321 223.737,92.7321 224.5,93.5C 203.663,89.4688 182.663,88.4688 161.5,90.5C 161.635,94.4383 163.135,97.7717 166,100.5C 170.744,105.75 175.911,110.417 181.5,114.5C 179.234,115.206 176.901,115.039 174.5,114C 171.447,112.473 168.447,110.973 165.5,109.5C 165.918,108.778 166.584,108.278 167.5,108C 166.018,105.52 164.185,103.353 162,101.5C 157.645,102.245 153.478,103.245 149.5,104.5C 106.547,110.54 66.2135,124.04 28.5,145C 18.399,151.275 8.73237,158.109 -0.5,165.5C -0.5,142.833 -0.5,120.167 -0.5,97.5C 12.9448,84.5615 27.9448,73.7281 44.5,65C 79.8467,47.0112 117.18,34.6779 156.5,28C 204.805,19.3053 252.805,9.80529 300.5,-0.5 Z"/></g>
<g><path style="opacity:1" fill="#935ef4" d="M 363.5,60.5 C 363.5,85.8333 363.5,111.167 363.5,136.5C 346.762,140.622 330.096,144.955 313.5,149.5C 312.041,149.433 310.708,149.766 309.5,150.5C 310.323,148.545 310.49,146.545 310,144.5C 286.838,118.664 258.338,101.664 224.5,93.5C 223.737,92.7321 222.737,92.2321 221.5,92C 222.5,91.6667 223.5,91.3333 224.5,91C 271.641,84.3866 317.975,74.22 363.5,60.5 Z"/></g>
<g><path style="opacity:1" fill="#fdfdfe" d="M 224.5,93.5 C 258.338,101.664 286.838,118.664 310,144.5C 310.49,146.545 310.323,148.545 309.5,150.5C 304.917,157.138 298.584,161.304 290.5,163C 285.833,163.333 281.167,163.667 276.5,164C 266.581,166.651 262.247,173.151 263.5,183.5C 263.193,189.093 263.527,194.593 264.5,200C 278.973,202.785 292.973,207.119 306.5,213C 314.406,218.071 320.739,224.571 325.5,232.5C 326.014,234.366 326.68,236.2 327.5,238C 327.257,238.902 326.923,239.735 326.5,240.5C 322.183,244.157 317.183,245.324 311.5,244C 307.973,241.638 304.973,238.804 302.5,235.5C 295.129,228.881 286.462,226.714 276.5,229C 265.639,233.699 254.306,235.365 242.5,234C 230.724,230.712 221.724,223.879 215.5,213.5C 214.675,212.614 213.675,212.281 212.5,212.5C 213.141,218.106 215.141,223.106 218.5,227.5C 218.672,228.492 218.338,229.158 217.5,229.5C 212.933,229.256 208.599,228.09 204.5,226C 192.289,219.728 179.956,213.728 167.5,208C 161.68,205.837 155.68,204.504 149.5,204C 148.767,200.455 147.767,196.955 146.5,193.5C 145.675,192.614 144.675,192.281 143.5,192.5C 145.019,203.627 141.019,212.127 131.5,218C 126.997,220.39 122.331,222.39 117.5,224C 106.132,225.281 95.1319,227.948 84.5,232C 76.9769,240.222 69.8102,248.722 63,257.5C 57.0223,264.407 49.5223,267.24 40.5,266C 39.0161,265.338 37.6828,264.504 36.5,263.5C 35.2216,261.456 35.3883,259.456 37,257.5C 50.5206,246.13 59.1873,231.796 63,214.5C 64.331,212.004 66.1644,210.004 68.5,208.5C 71.4282,208.435 74.0948,207.768 76.5,206.5C 85.8603,204.473 91.5269,198.806 93.5,189.5C 95.6534,181.233 97.9867,172.899 100.5,164.5C 102.396,161.257 104.73,158.257 107.5,155.5C 106.635,154.417 105.635,154.251 104.5,155C 103.315,156.353 101.981,157.52 100.5,158.5C 93.7114,153.586 90.7114,146.919 91.5,138.5C 92.2958,132.898 95.1291,128.898 100,126.5C 100.833,126.667 101.667,126.833 102.5,127C 110.741,137.287 121.408,143.12 134.5,144.5C 138.919,145.972 143.586,146.638 148.5,146.5C 157.576,147.239 166.576,148.739 175.5,151C 184.04,154.069 192.706,156.735 201.5,159C 217.025,161.993 226.525,155.827 230,140.5C 230.822,137.883 231.322,135.216 231.5,132.5C 232.785,129.411 233.451,126.078 233.5,122.5C 225.984,125.283 218.317,127.783 210.5,130C 191.157,133.936 173.823,129.769 158.5,117.5C 157.2,116.399 156.7,115.066 157,113.5C 159.663,111.751 162.497,110.418 165.5,109.5C 168.447,110.973 171.447,112.473 174.5,114C 176.901,115.039 179.234,115.206 181.5,114.5C 175.911,110.417 170.744,105.75 166,100.5C 163.135,97.7717 161.635,94.4383 161.5,90.5C 182.663,88.4688 203.663,89.4688 224.5,93.5 Z"/></g>
<g><path style="opacity:1" fill="#915df0" d="M 165.5,109.5 C 162.497,110.418 159.663,111.751 157,113.5C 156.7,115.066 157.2,116.399 158.5,117.5C 157.2,118.601 156.7,119.934 157,121.5C 170.876,133.457 187.042,138.624 205.5,137C 214.459,135.345 223.125,132.845 231.5,129.5C 231.5,130.5 231.5,131.5 231.5,132.5C 231.322,135.216 230.822,137.883 230,140.5C 226.525,155.827 217.025,161.993 201.5,159C 192.706,156.735 184.04,154.069 175.5,151C 166.576,148.739 157.576,147.239 148.5,146.5C 144.081,145.028 139.414,144.362 134.5,144.5C 121.408,143.12 110.741,137.287 102.5,127C 101.667,126.833 100.833,126.667 100,126.5C 95.1291,128.898 92.2958,132.898 91.5,138.5C 90.1863,143.348 90.1863,148.348 91.5,153.5C 93.7917,157.752 96.7917,161.419 100.5,164.5C 97.9867,172.899 95.6534,181.233 93.5,189.5C 93.0831,188.876 92.4164,188.543 91.5,188.5C 87.8294,189.631 84.1628,190.631 80.5,191.5C 79.7611,191.631 79.0944,191.464 78.5,191C 80.6104,187.903 82.2771,184.57 83.5,181C 83.0426,180.586 82.7093,180.086 82.5,179.5C 84.0287,177.293 84.6953,174.793 84.5,172C 84.173,166.693 82.8397,161.693 80.5,157C 82.5117,155.848 82.6783,154.682 81,153.5C 79.6329,154.524 78.7995,154.024 78.5,152C 78.7591,150.739 79.4258,149.739 80.5,149C 80.3775,147.211 80.3775,145.378 80.5,143.5C 78.2397,141.593 78.073,139.593 80,137.5C 80.9138,138.654 81.7471,138.487 82.5,137C 81.572,136.612 80.9054,135.945 80.5,135C 82.0168,132.157 83.5168,129.323 85,126.5C 89.8467,122.754 95.3467,120.421 101.5,119.5C 106.603,120.896 111.603,122.729 116.5,125C 122.789,130.766 129.789,134.266 137.5,135.5C 141.517,135.435 145.517,135.268 149.5,135C 152.13,131.772 151.964,128.605 149,125.5C 147.97,118.948 148.47,112.615 150.5,106.5C 150.457,105.584 150.124,104.917 149.5,104.5C 153.478,103.245 157.645,102.245 162,101.5C 164.185,103.353 166.018,105.52 167.5,108C 166.584,108.278 165.918,108.778 165.5,109.5 Z"/></g>
<g><path style="opacity:1" fill="#935df4" d="M 149.5,104.5 C 150.124,104.917 150.457,105.584 150.5,106.5C 148.47,112.615 147.97,118.948 149,125.5C 151.964,128.605 152.13,131.772 149.5,135C 145.517,135.268 141.517,135.435 137.5,135.5C 129.789,134.266 122.789,130.766 116.5,125C 111.603,122.729 106.603,120.896 101.5,119.5C 95.3467,120.421 89.8467,122.754 85,126.5C 83.5168,129.323 82.0168,132.157 80.5,135C 80.9054,135.945 81.572,136.612 82.5,137C 81.7471,138.487 80.9138,138.654 80,137.5C 78.073,139.593 78.2397,141.593 80.5,143.5C 80.3775,145.378 80.3775,147.211 80.5,149C 79.4258,149.739 78.7591,150.739 78.5,152C 78.7995,154.024 79.6329,154.524 81,153.5C 82.6783,154.682 82.5117,155.848 80.5,157C 82.8397,161.693 84.173,166.693 84.5,172C 84.6953,174.793 84.0287,177.293 82.5,179.5C 82.7093,180.086 83.0426,180.586 83.5,181C 82.2771,184.57 80.6104,187.903 78.5,191C 79.0944,191.464 79.7611,191.631 80.5,191.5C 80.5,191.833 80.5,192.167 80.5,192.5C 50.8283,201.168 23.8283,214.835 -0.5,233.5C -0.5,210.833 -0.5,188.167 -0.5,165.5C 8.73237,158.109 18.399,151.275 28.5,145C 66.2135,124.04 106.547,110.54 149.5,104.5 Z"/></g>
<g><path style="opacity:1" fill="#845adb" d="M 158.5,117.5 C 173.823,129.769 191.157,133.936 210.5,130C 218.317,127.783 225.984,125.283 233.5,122.5C 233.451,126.078 232.785,129.411 231.5,132.5C 231.5,131.5 231.5,130.5 231.5,129.5C 223.125,132.845 214.459,135.345 205.5,137C 187.042,138.624 170.876,133.457 157,121.5C 156.7,119.934 157.2,118.601 158.5,117.5 Z"/></g>
<g><path style="opacity:1" fill="#8454f7" d="M 363.5,136.5 C 363.5,165.5 363.5,194.5 363.5,223.5C 351.935,226.308 340.268,228.641 328.5,230.5C 324.764,223.261 319.43,217.428 312.5,213C 308.292,209.934 303.792,207.434 299,205.5C 298.667,205.833 298.333,206.167 298,206.5C 294.892,204.927 291.726,203.427 288.5,202C 280.843,201.481 275.676,198.315 273,192.5C 272.262,188.739 272.595,185.072 274,181.5C 277.546,179.4 280.879,177.067 284,174.5C 286.868,175.236 289.534,175.236 292,174.5C 296.011,171.71 300.177,169.543 304.5,168C 307.333,165.833 309.833,163.333 312,160.5C 313.237,156.94 313.737,153.273 313.5,149.5C 330.096,144.955 346.762,140.622 363.5,136.5 Z"/></g>
<g><path style="opacity:1" fill="#b089f3" d="M 134.5,144.5 C 139.414,144.362 144.081,145.028 148.5,146.5C 143.586,146.638 138.919,145.972 134.5,144.5 Z"/></g>
<g><path style="opacity:1" fill="#8255f1" d="M 313.5,149.5 C 313.737,153.273 313.237,156.94 312,160.5C 309.833,163.333 307.333,165.833 304.5,168C 300.177,169.543 296.011,171.71 292,174.5C 289.534,175.236 286.868,175.236 284,174.5C 280.879,177.067 277.546,179.4 274,181.5C 272.595,185.072 272.262,188.739 273,192.5C 275.676,198.315 280.843,201.481 288.5,202C 291.726,203.427 294.892,204.927 298,206.5C 298.333,206.167 298.667,205.833 299,205.5C 303.792,207.434 308.292,209.934 312.5,213C 319.43,217.428 324.764,223.261 328.5,230.5C 327.29,230.932 326.29,231.599 325.5,232.5C 320.739,224.571 314.406,218.071 306.5,213C 292.973,207.119 278.973,202.785 264.5,200C 263.527,194.593 263.193,189.093 263.5,183.5C 264.72,178.594 267.387,174.428 271.5,171C 279.441,169.376 287.441,168.043 295.5,167C 304.062,164.618 308.729,159.118 309.5,150.5C 310.708,149.766 312.041,149.433 313.5,149.5 Z"/></g>
<g><path style="opacity:1" fill="#7a55de" d="M 309.5,150.5 C 308.729,159.118 304.062,164.618 295.5,167C 287.441,168.043 279.441,169.376 271.5,171C 267.387,174.428 264.72,178.594 263.5,183.5C 262.247,173.151 266.581,166.651 276.5,164C 281.167,163.667 285.833,163.333 290.5,163C 298.584,161.304 304.917,157.138 309.5,150.5 Z"/></g>
<g><path style="opacity:1" fill="#8960dd" d="M 91.5,138.5 C 90.7114,146.919 93.7114,153.586 100.5,158.5C 101.981,157.52 103.315,156.353 104.5,155C 105.635,154.251 106.635,154.417 107.5,155.5C 104.73,158.257 102.396,161.257 100.5,164.5C 96.7917,161.419 93.7917,157.752 91.5,153.5C 90.1863,148.348 90.1863,143.348 91.5,138.5 Z"/></g>
<g><path style="opacity:1" fill="#8454f7" d="M 80.5,192.5 C 79.7721,194.735 78.4388,196.568 76.5,198C 69.1511,201.049 62.6511,205.215 57,210.5C 52.1461,218.874 47.8128,227.541 44,236.5C 38.0017,243.673 33.1684,251.506 29.5,260C 29.6448,260.772 29.9781,261.439 30.5,262C 29.6919,262.308 29.0253,262.808 28.5,263.5C 30.836,272.165 36.1693,277.831 44.5,280.5C 28.4707,287.014 13.4707,295.347 -0.5,305.5C -0.5,281.5 -0.5,257.5 -0.5,233.5C 23.8283,214.835 50.8283,201.168 80.5,192.5 Z"/></g>
<g><path style="opacity:1" fill="#7a54de" d="M 217.5,229.5 C 216.929,230.973 216.929,232.64 217.5,234.5C 212.195,234.677 207.195,233.51 202.5,231C 192.01,225.922 181.677,220.589 171.5,215C 163.706,211.746 155.706,209.579 147.5,208.5C 145.247,209.253 143.413,210.586 142,212.5C 138.777,218.723 133.943,223.223 127.5,226C 116.129,229.898 104.463,232.731 92.5,234.5C 89.9454,235.944 87.2787,237.111 84.5,238C 75.8702,248.298 66.8702,258.298 57.5,268C 52.7864,271.793 47.4531,273.126 41.5,272C 39.3676,271.082 38.701,269.749 39.5,268C 38.7471,266.513 37.9138,266.346 37,267.5C 36.51,266.207 36.3433,264.873 36.5,263.5C 37.6828,264.504 39.0161,265.338 40.5,266C 49.5223,267.24 57.0223,264.407 63,257.5C 69.8102,248.722 76.9769,240.222 84.5,232C 95.1319,227.948 106.132,225.281 117.5,224C 122.331,222.39 126.997,220.39 131.5,218C 141.019,212.127 145.019,203.627 143.5,192.5C 144.675,192.281 145.675,192.614 146.5,193.5C 147.767,196.955 148.767,200.455 149.5,204C 155.68,204.504 161.68,205.837 167.5,208C 179.956,213.728 192.289,219.728 204.5,226C 208.599,228.09 212.933,229.256 217.5,229.5 Z"/></g>
<g><path style="opacity:1" fill="#dccefb" d="M 76.5,206.5 C 74.0948,207.768 71.4282,208.435 68.5,208.5C 70.8383,206.96 73.5049,206.294 76.5,206.5 Z"/></g>
<g><path style="opacity:1" fill="#8053f1" d="M 93.5,189.5 C 91.5269,198.806 85.8603,204.473 76.5,206.5C 73.5049,206.294 70.8383,206.96 68.5,208.5C 66.1644,210.004 64.331,212.004 63,214.5C 59.1873,231.796 50.5206,246.13 37,257.5C 35.3883,259.456 35.2216,261.456 36.5,263.5C 36.3433,264.873 36.51,266.207 37,267.5C 37.9138,266.346 38.7471,266.513 39.5,268C 38.701,269.749 39.3676,271.082 41.5,272C 47.4531,273.126 52.7864,271.793 57.5,268C 66.8702,258.298 75.8702,248.298 84.5,238C 87.2787,237.111 89.9454,235.944 92.5,234.5C 104.463,232.731 116.129,229.898 127.5,226C 133.943,223.223 138.777,218.723 142,212.5C 143.413,210.586 145.247,209.253 147.5,208.5C 155.706,209.579 163.706,211.746 171.5,215C 181.677,220.589 192.01,225.922 202.5,231C 207.195,233.51 212.195,234.677 217.5,234.5C 216.929,232.64 216.929,230.973 217.5,229.5C 218.338,229.158 218.672,228.492 218.5,227.5C 218.369,226.624 218.702,225.957 219.5,225.5C 235.801,241.523 254.467,244.69 275.5,235C 282.939,234.09 290.272,234.59 297.5,236.5C 299.135,235.954 300.801,235.62 302.5,235.5C 304.973,238.804 307.973,241.638 311.5,244C 317.183,245.324 322.183,244.157 326.5,240.5C 326.777,247.49 323.277,250.823 316,250.5C 313.268,250.385 310.768,249.552 308.5,248C 305.833,245 303.167,242 300.5,239C 297.793,237.943 294.96,237.443 292,237.5C 270.939,240.954 249.772,243.62 228.5,245.5C 226.619,243.455 224.452,242.788 222,243.5C 217.014,241.834 211.847,241.001 206.5,241C 204.22,240.767 202.22,239.934 200.5,238.5C 199.707,238.931 198.873,239.265 198,239.5C 185.856,232.602 173.523,226.935 161,222.5C 152.614,220.625 145.447,222.958 139.5,229.5C 135.833,231.667 132.167,233.833 128.5,236C 116.651,239.485 104.985,242.819 93.5,246C 89.642,249.077 85.8086,252.243 82,255.5C 77.5054,260.994 72.672,266.161 67.5,271C 67.7284,271.399 68.0618,271.565 68.5,271.5C 60.5751,274.478 52.5751,277.478 44.5,280.5C 36.1693,277.831 30.836,272.165 28.5,263.5C 29.0253,262.808 29.6919,262.308 30.5,262C 29.9781,261.439 29.6448,260.772 29.5,260C 33.1684,251.506 38.0017,243.673 44,236.5C 47.8128,227.541 52.1461,218.874 57,210.5C 62.6511,205.215 69.1511,201.049 76.5,198C 78.4388,196.568 79.7721,194.735 80.5,192.5C 80.5,192.167 80.5,191.833 80.5,191.5C 84.1628,190.631 87.8294,189.631 91.5,188.5C 92.4164,188.543 93.0831,188.876 93.5,189.5 Z"/></g>
<g><path style="opacity:1" fill="#8454f7" d="M 228.5,245.5 C 189.39,249.745 150.39,254.911 111.5,261C 97.032,264.034 82.6987,267.534 68.5,271.5C 68.0618,271.565 67.7284,271.399 67.5,271C 72.672,266.161 77.5054,260.994 82,255.5C 85.8086,252.243 89.642,249.077 93.5,246C 104.985,242.819 116.651,239.485 128.5,236C 132.167,233.833 135.833,231.667 139.5,229.5C 145.447,222.958 152.614,220.625 161,222.5C 173.523,226.935 185.856,232.602 198,239.5C 198.873,239.265 199.707,238.931 200.5,238.5C 202.22,239.934 204.22,240.767 206.5,241C 211.847,241.001 217.014,241.834 222,243.5C 224.452,242.788 226.619,243.455 228.5,245.5 Z"/></g>
<g><path style="opacity:1" fill="#744cfb" d="M 363.5,223.5 C 363.5,250.167 363.5,276.833 363.5,303.5C 340.036,308.41 316.37,312.244 292.5,315C 246.198,319.164 199.864,323.164 153.5,327C 116.108,329.345 79.7744,336.678 44.5,349C 36.7499,352.623 28.7499,355.956 20.5,359C 17.7613,360.026 15.428,361.526 13.5,363.5C 8.83333,363.5 4.16667,363.5 -0.5,363.5C -0.5,344.167 -0.5,324.833 -0.5,305.5C 13.4707,295.347 28.4707,287.014 44.5,280.5C 52.5751,277.478 60.5751,274.478 68.5,271.5C 82.6987,267.534 97.032,264.034 111.5,261C 150.39,254.911 189.39,249.745 228.5,245.5C 249.772,243.62 270.939,240.954 292,237.5C 294.96,237.443 297.793,237.943 300.5,239C 303.167,242 305.833,245 308.5,248C 310.768,249.552 313.268,250.385 316,250.5C 323.277,250.823 326.777,247.49 326.5,240.5C 326.923,239.735 327.257,238.902 327.5,238C 326.68,236.2 326.014,234.366 325.5,232.5C 326.29,231.599 327.29,230.932 328.5,230.5C 340.268,228.641 351.935,226.308 363.5,223.5 Z"/></g>
<g><path style="opacity:1" fill="#7852dd" d="M 302.5,235.5 C 300.801,235.62 299.135,235.954 297.5,236.5C 290.272,234.59 282.939,234.09 275.5,235C 254.467,244.69 235.801,241.523 219.5,225.5C 218.702,225.957 218.369,226.624 218.5,227.5C 215.141,223.106 213.141,218.106 212.5,212.5C 213.675,212.281 214.675,212.614 215.5,213.5C 221.724,223.879 230.724,230.712 242.5,234C 254.306,235.365 265.639,233.699 276.5,229C 286.462,226.714 295.129,228.881 302.5,235.5 Z"/></g>
<g><path style="opacity:1" fill="#6644fe" d="M 363.5,303.5 C 363.5,323.5 363.5,343.5 363.5,363.5C 246.833,363.5 130.167,363.5 13.5,363.5C 15.428,361.526 17.7613,360.026 20.5,359C 28.7499,355.956 36.7499,352.623 44.5,349C 79.7744,336.678 116.108,329.345 153.5,327C 199.864,323.164 246.198,319.164 292.5,315C 316.37,312.244 340.036,308.41 363.5,303.5 Z"/></g>
</svg>
