<?xml version="1.0" encoding="UTF-8"?>
<!DOCTYPE svg PUBLIC "-//W3C//DTD SVG 1.1//EN" "http://www.w3.org/Graphics/SVG/1.1/DTD/svg11.dtd">
<svg xmlns="http://www.w3.org/2000/svg" version="1.1" width="225px" height="225px" style="shape-rendering:geometricPrecision; text-rendering:geometricPrecision; image-rendering:optimizeQuality; fill-rule:evenodd; clip-rule:evenodd" xmlns:xlink="http://www.w3.org/1999/xlink">
<g><path style="opacity:1" fill="#000001" d="M -0.5,-0.5 C 74.5,-0.5 149.5,-0.5 224.5,-0.5C 224.5,74.5 224.5,149.5 224.5,224.5C 149.5,224.5 74.5,224.5 -0.5,224.5C -0.5,149.5 -0.5,74.5 -0.5,-0.5 Z"/></g>
<g><path style="opacity:1" fill="#fafafa" d="M 126.5,68.5 C 126.5,69.1667 126.5,69.8333 126.5,70.5C 125.833,70.5 125.5,70.8333 125.5,71.5C 120.944,76.9181 116.611,82.5848 112.5,88.5C 107.813,82.4311 103.147,76.4311 98.5,70.5C 98.5,69.8333 98.5,69.1667 98.5,68.5C 98.5,52.5 98.5,36.5 98.5,20.5C 107.833,20.5 117.167,20.5 126.5,20.5C 126.5,36.5 126.5,52.5 126.5,68.5 Z"/></g>
<g><path style="opacity:1" fill="#f60059" d="M 149.5,84.5 C 149.167,85.5 148.5,86.1667 147.5,86.5C 140.85,88.628 134.183,90.628 127.5,92.5C 126.508,85.3524 126.175,78.0191 126.5,70.5C 126.5,69.8333 126.5,69.1667 126.5,68.5C 135.89,56.0774 145.057,43.4107 154,30.5C 154.718,29.5494 155.551,29.3828 156.5,30C 163.32,35.5759 170.32,40.9093 177.5,46C 168.28,58.9513 158.946,71.7847 149.5,84.5 Z"/></g>
<g><path style="opacity:1" fill="#00efe4" d="M 98.5,68.5 C 98.5,69.1667 98.5,69.8333 98.5,70.5C 98.5,77.8333 98.5,85.1667 98.5,92.5C 91.3984,90.7782 84.3984,88.7782 77.5,86.5C 76.7095,85.5987 75.7095,84.9321 74.5,84.5C 65.3906,71.7953 56.3906,58.9619 47.5,46C 54.3898,39.9482 61.7232,34.4482 69.5,29.5C 78.9438,42.7463 88.6105,55.7463 98.5,68.5 Z"/></g>
<g><path style="opacity:1" fill="#59001d" d="M 126.5,70.5 C 126.175,78.0191 126.508,85.3524 127.5,92.5C 127.44,93.0431 127.107,93.3764 126.5,93.5C 125.503,86.1968 125.169,78.8635 125.5,71.5C 125.5,70.8333 125.833,70.5 126.5,70.5 Z"/></g>
<g><path style="opacity:1" fill="#00b6ec" d="M 74.5,84.5 C 75.7095,84.9321 76.7095,85.5987 77.5,86.5C 81.056,92.7364 85.056,98.7364 89.5,104.5C 82.3995,107.196 75.3995,109.862 68.5,112.5C 67.8333,112.5 67.1667,112.5 66.5,112.5C 52.4316,107.224 38.0982,102.391 23.5,98C 21.5819,96.2298 21.0819,94.0631 22,91.5C 24.2148,84.3528 26.7148,77.3528 29.5,70.5C 44.2806,75.9831 59.2806,80.6498 74.5,84.5 Z"/></g>
<g><path style="opacity:1" fill="#030304" d="M 98.5,70.5 C 103.147,76.4311 107.813,82.4311 112.5,88.5C 116.611,82.5848 120.944,76.9181 125.5,71.5C 125.169,78.8635 125.503,86.1968 126.5,93.5C 127.107,93.3764 127.44,93.0431 127.5,92.5C 134.183,90.628 140.85,88.628 147.5,86.5C 143.191,92.4818 138.858,98.4818 134.5,104.5C 141.589,107.192 148.589,109.859 155.5,112.5C 148.439,114.208 141.772,116.708 135.5,120C 139.096,125.933 143.096,131.6 147.5,137C 147.272,137.399 146.938,137.565 146.5,137.5C 140.222,135.347 133.888,133.347 127.5,131.5C 126.503,138.803 126.169,146.137 126.5,153.5C 121.506,147.829 116.839,141.829 112.5,135.5C 107.813,141.569 103.147,147.569 98.5,153.5C 98.5,146.167 98.5,138.833 98.5,131.5C 91.3549,133.036 84.3549,135.036 77.5,137.5C 81.4796,131.557 85.4796,125.557 89.5,119.5C 82.7461,116.582 75.7461,114.249 68.5,112.5C 75.3995,109.862 82.3995,107.196 89.5,104.5C 85.056,98.7364 81.056,92.7364 77.5,86.5C 84.3984,88.7782 91.3984,90.7782 98.5,92.5C 98.5,85.1667 98.5,77.8333 98.5,70.5 Z"/></g>
<g><path style="opacity:1" fill="#d335f9" d="M 158.5,112.5 C 157.5,112.5 156.5,112.5 155.5,112.5C 148.589,109.859 141.589,107.192 134.5,104.5C 138.858,98.4818 143.191,92.4818 147.5,86.5C 148.5,86.1667 149.167,85.5 149.5,84.5C 165.312,80.2283 180.979,75.5617 196.5,70.5C 198.038,77.9809 200.205,85.3143 203,92.5C 203.798,94.2588 203.631,95.9255 202.5,97.5C 187.464,101.733 172.798,106.733 158.5,112.5 Z"/></g>
<g><path style="opacity:1" fill="#00b7ed" d="M 155.5,112.5 C 156.5,112.5 157.5,112.5 158.5,112.5C 173.251,117.918 188.251,122.585 203.5,126.5C 201.471,135.919 198.471,144.919 194.5,153.5C 179.423,147.893 164.09,142.893 148.5,138.5C 147.508,138.672 146.842,138.338 146.5,137.5C 146.938,137.565 147.272,137.399 147.5,137C 143.096,131.6 139.096,125.933 135.5,120C 141.772,116.708 148.439,114.208 155.5,112.5 Z"/></g>
<g><path style="opacity:1" fill="#d235f9" d="M 66.5,112.5 C 67.1667,112.5 67.8333,112.5 68.5,112.5C 75.7461,114.249 82.7461,116.582 89.5,119.5C 85.4796,125.557 81.4796,131.557 77.5,137.5C 76.5,138.167 75.5,138.833 74.5,139.5C 59.6058,143.933 44.7724,148.599 30,153.5C 26.5753,145.072 23.4086,136.405 20.5,127.5C 35.6228,121.885 50.9561,116.885 66.5,112.5 Z"/></g>
<g><path style="opacity:1" fill="#f60059" d="M 98.5,153.5 C 98.5,154.167 98.5,154.833 98.5,155.5C 88.6105,168.254 78.9438,181.254 69.5,194.5C 61.7232,189.552 54.3898,184.052 47.5,178C 56.3906,165.038 65.3906,152.205 74.5,139.5C 75.5,138.833 76.5,138.167 77.5,137.5C 84.3549,135.036 91.3549,133.036 98.5,131.5C 98.5,138.833 98.5,146.167 98.5,153.5 Z"/></g>
<g><path style="opacity:1" fill="#00efe4" d="M 146.5,137.5 C 146.842,138.338 147.508,138.672 148.5,138.5C 158.035,151.726 167.702,164.893 177.5,178C 170.025,183.308 162.692,188.808 155.5,194.5C 145.569,181.611 135.902,168.611 126.5,155.5C 126.5,154.833 126.5,154.167 126.5,153.5C 126.169,146.137 126.503,138.803 127.5,131.5C 133.888,133.347 140.222,135.347 146.5,137.5 Z"/></g>
<g><path style="opacity:1" fill="#fafafa" d="M 126.5,153.5 C 126.5,154.167 126.5,154.833 126.5,155.5C 126.5,171.5 126.5,187.5 126.5,203.5C 117.167,203.5 107.833,203.5 98.5,203.5C 98.5,187.5 98.5,171.5 98.5,155.5C 98.5,154.833 98.5,154.167 98.5,153.5C 103.147,147.569 107.813,141.569 112.5,135.5C 116.839,141.829 121.506,147.829 126.5,153.5 Z"/></g>
</svg>
