<svg xmlns="http://www.w3.org/2000/svg" width="267" height="240" style="shape-rendering:geometricPrecision;text-rendering:geometricPrecision;image-rendering:optimizeQuality;fill-rule:evenodd;clip-rule:evenodd"><path style="opacity:.703" fill="#496564" d="M177.5.5c-1 1.667-2.333 3-4 4-.321-1.548-1.321-2.215-3-2 1.938-1.663 4.272-2.33 7-2z"/><path style="opacity:.514" fill="#468383" d="M170.5 2.5c1.679-.215 2.679.452 3 2-.333 1-1 1.667-2 2-.448-1.965-1.448-2.298-3-1-2.469 2.448-4.469 5.115-6 8v-3c1.688-3.688 4.355-6.355 8-8z"/><path style="opacity:1" fill="#484e4e" d="M171.5 7.5v2l-3 2c.238-1.904 1.238-3.238 3-4z"/><path style="opacity:.982" fill="#b2280f" d="M181.5 9.5c3.558 2.054 6.725 4.72 9.5 8a108.674 108.674 0 0 1 11 21 7487.518 7487.518 0 0 1 37 109 555.105 555.105 0 0 0 21.5 50 194.042 194.042 0 0 1-25-22 60.175 60.175 0 0 0-2.5-13 424.057 424.057 0 0 1-17-51A1190.436 1190.436 0 0 0 192.5 28c-.336-1.03-1.003-1.53-2-1.5l-4-4c.043-4.583-1.957-7.917-6-10-1.239.442-2.239 1.11-3 2v-3c1.105-1.1 2.438-1.767 4-2z"/><path style="opacity:.584" fill="#456060" d="M162.5 10.5v3c-.838.342-1.172 1.008-1 2a94.084 94.084 0 0 1-10 13 123.112 123.112 0 0 1 11-18z"/><path style="opacity:1" fill="#468e8e" d="M168.5 11.5c.073 1.527-.594 2.527-2 3-.073-1.527.594-2.527 2-3z"/><path style="opacity:1" fill="#f9810f" d="M186.5 22.5a48.552 48.552 0 0 1 3 15 32.316 32.316 0 0 0-4-10 31.54 31.54 0 0 1-2.5-9c-1.079-1.894-2.413-2.227-4-1a17.759 17.759 0 0 0-1.5 7v2h-1v-5c-.134-1.791.199-3.458 1-5 1.101-1.3 2.434-1.8 4-1.5 2.128 2.273 3.795 4.773 5 7.5z"/><path style="opacity:1" fill="#451313" d="m171.5 9.5-2 11c-1.758 1.64-3.258 3.64-4.5 6a190.014 190.014 0 0 1-4 15 372.833 372.833 0 0 0-12.5 32c-4.917 6.544-8.417 13.877-10.5 22-.624 2.254-1.957 3.92-4 5-9.183 23.85-23.016 44.683-41.5 62.5a182.106 182.106 0 0 1-14 10.5c3.178-5.691 7.345-10.691 12.5-15a79.839 79.839 0 0 0 6.5-9c11.418-14.487 21.085-30.153 29-47 2.039-1.411 3.039-3.411 3-6 2.039-1.411 3.039-3.411 3-6 1.604-.787 2.271-2.12 2-4 .838-.342 1.172-1.008 1-2 1.406-.473 2.073-1.473 2-3l2-5c2.107-2.557 3.441-5.557 4-9 1.793-1.926 2.793-4.26 3-7a270.884 270.884 0 0 0 15-35c2.125-2.588 3.458-5.588 4-9 .838-.342 1.172-1.008 1-2 1.406-.473 2.073-1.473 2-3l3-2z"/><path style="opacity:1" fill="#de5a0f" d="M186.5 22.5c-1.205-2.727-2.872-5.227-5-7.5-1.566-.3-2.899.2-4 1.5v-2c.761-.89 1.761-1.558 3-2 4.043 2.083 6.043 5.417 6 10z"/><path style="opacity:1" fill="#ffb90e" d="M185.5 27.5v3h-1a90.598 90.598 0 0 0-2.5-9c-2.658-1.194-3.824-.194-3.5 3h-1c.023-2.427.523-4.76 1.5-7 1.587-1.227 2.921-.894 4 1a31.54 31.54 0 0 0 2.5 9z"/><path style="opacity:1" fill="#44dcdc" d="M171.5 6.5v1c-1.762.762-2.762 2.096-3 4-1.406.473-2.073 1.473-2 3 .172.992-.162 1.658-1 2-2.125 2.588-3.458 5.588-4 9-.815.93-1.648 1.93-2.5 3a4.934 4.934 0 0 1-.5-3 365.06 365.06 0 0 0 3-10c-.172-.992.162-1.658 1-2 1.531-2.885 3.531-5.552 6-8 1.552-1.298 2.552-.965 3 1z"/><path style="opacity:1" fill="#45a2a2" d="M165.5 16.5c-.542 3.412-1.875 6.412-4 9 .542-3.412 1.875-6.412 4-9z"/><path style="opacity:.953" fill="#ab250f" d="M181.5 9.5c4.529-.004 8.029 1.996 10.5 6a363.768 363.768 0 0 1 23 52 1451.674 1451.674 0 0 0 35 99c1.357 3.398 3.19 6.398 5.5 9l11 24v2c-2.698-.345-4.698-1.678-6-4a555.105 555.105 0 0 1-21.5-50 7487.518 7487.518 0 0 0-37-109 108.674 108.674 0 0 0-11-21c-2.775-3.28-5.942-5.946-9.5-8z"/><path style="opacity:1" fill="#46bcbc" d="M158.5 25.5a4.934 4.934 0 0 0 .5 3 81.819 81.819 0 0 1 2.5-3 270.884 270.884 0 0 1-15 35c-1.15 1.35-1.817 1.184-2-.5a34.034 34.034 0 0 1 3-7.5 503.147 503.147 0 0 1 11-27z"/><path style="opacity:1" fill="#9c310f" d="M177.5 14.5v2c-.801 1.542-1.134 3.209-1 5-1.225.652-1.892 1.819-2 3.5a61.702 61.702 0 0 0-1 8.5l-2 2c-.004-7.693 1.996-14.693 6-21z"/><path style="opacity:1" fill="#ffe10e" d="M184.5 30.5a63.13 63.13 0 0 1-1.5 18c-.741 1.14-1.575 1.14-2.5 0a13.115 13.115 0 0 1-1-7c.815.93 1.648 1.93 2.5 3 1.904-6.293 1.904-12.626 0-19a3.646 3.646 0 0 0-1.5-1 31.12 31.12 0 0 1-2 2v-2c-.324-3.194.842-4.194 3.5-3a90.598 90.598 0 0 1 2.5 9z"/><path style="opacity:.984" fill="#ba2f0f" d="M190.5 26.5c.997-.03 1.664.47 2 1.5a1190.436 1190.436 0 0 1 23.5 83.5 424.057 424.057 0 0 0 17 51 60.175 60.175 0 0 1 2.5 13l-10-7a2636.658 2636.658 0 0 1-27.5-113c-.383-.556-.883-.89-1.5-1a815.74 815.74 0 0 0-6-28z"/><path style="opacity:1" fill="#448e8e" d="M148.5 44.5a8.43 8.43 0 0 0-.5-4 13.908 13.908 0 0 1-4 3l-1 5c-1.011.837-2.178 1.17-3.5 1 .271 1.88-.396 3.213-2 4v-2a5.727 5.727 0 0 1 1-3 139.734 139.734 0 0 0 12-16c1.395-1.554 2.061-1.221 2 1-.592 4.098-1.925 7.765-4 11z"/><path style="opacity:.637" fill="#a3240f" d="M185.5 4.5c3 2.168 5.5 4.834 7.5 8a221.626 221.626 0 0 1 15 31 3449.137 3449.137 0 0 0 47.5 132c-2.31-2.602-4.143-5.602-5.5-9a1451.674 1451.674 0 0 1-35-99 363.768 363.768 0 0 0-23-52c-2.471-4.004-5.971-6.004-10.5-6-1.562.233-2.895.9-4 2 .834-4.504 3.5-6.837 8-7z"/><path style="opacity:.993" fill="#7f1d0f" d="M174.5 10.5a1108.233 1108.233 0 0 1-18.5 85 308.073 308.073 0 0 1-18 49c-10.5 18.5-25 33-43.5 43.5-1.323.816-1.99 1.983-2 3.5-1.174-1.014-1.84-2.347-2-4 19.773-11.607 34.939-27.607 45.5-48 14.512-32.041 25.012-65.375 31.5-100 .741-10.16 3.075-19.826 7-29z"/><path style="opacity:1" fill="#fff20e" d="M179.5 41.5c-.987-4.805-1.321-9.805-1-15a31.12 31.12 0 0 0 2-2c.586.21 1.086.543 1.5 1 1.904 6.374 1.904 12.707 0 19a81.819 81.819 0 0 0-2.5-3z"/><path style="opacity:.537" fill="#454f4f" d="m151.5 28.5-1 4a139.734 139.734 0 0 1-12 16v-1a282.744 282.744 0 0 1 13-19z"/><path style="opacity:1" fill="#447e7e" d="M161.5 15.5a365.06 365.06 0 0 1-3 10 503.147 503.147 0 0 0-11 27c-.597-.235-.93-.735-1-1.5a16.993 16.993 0 0 0 2-6.5c2.075-3.235 3.408-6.902 4-11 .061-2.221-.605-2.554-2-1l1-4a94.084 94.084 0 0 0 10-13z"/><path style="opacity:.995" fill="#771a0f" d="M167.5 39.5c-6.488 34.625-16.988 67.959-31.5 100-10.561 20.393-25.727 36.393-45.5 48-1.474-.936-2.474-2.27-3-4 18.536-13.369 33.369-30.036 44.5-50a371.94 371.94 0 0 0 29.5-80c1.899-3.697 3.232-7.697 4-12 .247-1.213.914-1.88 2-2z"/><path style="opacity:1" fill="#ffd10e" d="M177.5 24.5h1v2c-.321 5.195.013 10.195 1 15a13.115 13.115 0 0 0 1 7c.925 1.14 1.759 1.14 2.5 0a63.13 63.13 0 0 0 1.5-18h1v1c.166 7.008 0 14.008-.5 21-.174 3.37-1.674 4.37-4.5 3-2.52-9.47-3.52-19.136-3-29v-2z"/><path style="opacity:.993" fill="#67160f" d="M177.5.5c2.398-.24 4.398.426 6 2a9.107 9.107 0 0 0-5 1c-.975 2.652-2.308 4.986-4 7-3.925 9.174-6.259 18.84-7 29-1.086.12-1.753.787-2 2-.768 4.303-2.101 8.303-4 12a560.138 560.138 0 0 1-31.5 78 229.834 229.834 0 0 1-16 24 334.645 334.645 0 0 1-27.5 26c-1-.333-1.667-1-2-2 17.101-13.275 31.268-29.275 42.5-48a348.089 348.089 0 0 0 27.5-65c6.166-14.834 11.166-30.167 15-46l2-11v-3c1-.333 1.667-1 2-2 1.667-1 3-2.333 4-4z"/><path style="opacity:.729" fill="#453e3d" d="M138.5 47.5v1a5.727 5.727 0 0 0-1 3c-3.403 2.4-6.07 5.4-8 9-.901.79-1.568 1.79-2 3a103.863 103.863 0 0 0-16 11 72.045 72.045 0 0 1-11 1 154.27 154.27 0 0 0 21-10.5 420.446 420.446 0 0 0 17-17.5z"/><path style="opacity:1" fill="#ffb80e" d="M176.5 26.5h1c-.52 9.864.48 19.53 3 29 2.826 1.37 4.326.37 4.5-3 .5-6.992.666-13.992.5-21 1.675 3.007 2.341 6.34 2 10 .166 7.008 0 14.008-.5 21-.21 2.734-1.044 5.234-2.5 7.5-.949.617-1.782.45-2.5-.5-3.567-7.013-5.401-14.346-5.5-22v-21z"/><path style="opacity:1" fill="#449595" d="M148.5 44.5a16.993 16.993 0 0 1-2 6.5c.07.765.403 1.265 1 1.5a34.034 34.034 0 0 0-3 7.5c.183 1.684.85 1.85 2 .5-.207 2.74-1.207 5.074-3 7-2.092 2.588-3.425 5.588-4 9l-2 5c-1.406.473-2.073 1.473-2 3 .172.992-.162 1.658-1 2-1.174 1.014-1.84 2.347-2 4-1.508 1.681-2.508 3.681-3 6-1.846 1.53-2.846 3.53-3 6a489.688 489.688 0 0 1-28 43 28.071 28.071 0 0 1-5 5c0-.667-.333-1-1-1a5.728 5.728 0 0 1 1-3c6.448-5.555 11.448-12.221 15-20a218.713 218.713 0 0 0 10-17c1.237-1.465 2.237-3.132 3-5 1.174-1.014 1.84-2.347 2-4a35.68 35.68 0 0 0 4-7c1.174-1.014 1.84-2.347 2-4 1.174-1.014 1.84-2.347 2-4 1.508-1.681 2.508-3.681 3-6 1.841-2.349 3.174-5.015 4-8 1.727-2.016 2.561-4.349 2.5-7a11.357 11.357 0 0 1-3.5 1.5 131.702 131.702 0 0 1-17 10 114.965 114.965 0 0 1-12 10c-2.177 1.202-4.511 1.702-7 1.5 1.109-.79 2.442-1.29 4-1.5a22.021 22.021 0 0 0 6-7.5c-4.92-.35-9.92-.35-15 0 .762-1.762 2.096-2.762 4-3a72.045 72.045 0 0 0 11-1c2.726.236 5.059-.597 7-2.5 3.032-2.84 6.032-5.674 9-8.5.432-1.21 1.099-2.21 2-3l8-7c1.604-.787 2.271-2.12 2-4 1.322.17 2.489-.163 3.5-1l1-5a13.908 13.908 0 0 0 4-3 8.43 8.43 0 0 1 .5 4z"/><path style="opacity:1" fill="#446b6b" d="M137.5 51.5v2l-8 7c1.93-3.6 4.597-6.6 8-9z"/><path style="opacity:.996" fill="#6d170f" d="M161.5 53.5a371.94 371.94 0 0 1-29.5 80c-11.131 19.964-25.964 36.631-44.5 50-.838-.342-1.172-1.008-1-2a334.645 334.645 0 0 0 27.5-26 229.834 229.834 0 0 0 16-24 560.138 560.138 0 0 0 31.5-78z"/><path style="opacity:.992" fill="#60150f" d="M154.5 66.5a348.089 348.089 0 0 1-27.5 65c-11.232 18.725-25.399 34.725-42.5 48-.667 0-1-.333-1-1a30.818 30.818 0 0 0 3-4.5c13.527-10.195 25.027-22.362 34.5-36.5a430.964 430.964 0 0 0 33.5-71z"/><path style="opacity:.996" fill="#88210f" d="M183.5 2.5c1 .333 1.667 1 2 2-4.5.163-7.166 2.496-8 7v3c-4.004 6.307-6.004 13.307-6 21l-2 18c-.617.11-1.117.444-1.5 1-.755 6.546-1.922 12.88-3.5 19-1.086.12-1.753.787-2 2-4.669 26.172-12.835 51.172-24.5 75a230.825 230.825 0 0 1-15.5 20.5 374.516 374.516 0 0 1-29 21.5c-.667 0-1-.333-1-1 .01-1.517.677-2.684 2-3.5 18.5-10.5 33-25 43.5-43.5a308.073 308.073 0 0 0 18-49 1108.233 1108.233 0 0 0 18.5-85c1.692-2.014 3.025-4.348 4-7a9.107 9.107 0 0 1 5-1z"/><path style="opacity:1" fill="#de670f" d="M173.5 67.5c.663 28.665.83 57.332.5 86-.521 10.754-3.521 20.754-9 30-2.921 3.592-6.421 6.425-10.5 8.5a129.852 129.852 0 0 1-35 6.5 332.19 332.19 0 0 1 21-4.5c16.071-4.921 25.571-15.755 28.5-32.5a304.77 304.77 0 0 0 2-13 5452.54 5452.54 0 0 0 2.5-81z"/><path style="opacity:1" fill="#fe950e" d="M185.5 27.5a32.316 32.316 0 0 1 4 10c-.31 3.213.023 6.213 1 9v10c.167 11.338 0 22.672-.5 34 .013 3.624-1.32 6.624-4 9l-2-2a96.983 96.983 0 0 1-7-22 364.264 364.264 0 0 1-1.5-43c-.268-1.599.066-2.932 1-4v19c-1.215 11.872.618 23.205 5.5 34 3.481 3.635 5.481 2.635 6-3 .827-12.507.66-24.84-.5-37 .341-3.66-.325-6.993-2-10v-4z"/><path style="opacity:1" fill="#fd870f" d="M175.5 32.5a364.264 364.264 0 0 0 1.5 43 96.983 96.983 0 0 0 7 22l2 2c2.68-2.376 4.013-5.376 4-9 .5-11.328.667-22.662.5-34 .9 4.832 1.566 9.832 2 15a378.247 378.247 0 0 1-2 52c-1.89.203-3.39-.463-4.5-2a230.649 230.649 0 0 1-8.5-30c.09-2.652-.576-4.986-2-7h-1a676.415 676.415 0 0 1 1-52z"/><path style="opacity:1" fill="#447a7a" d="M138.5 71.5c-9.474.967-16.807 5.467-22 13.5a58.442 58.442 0 0 1-14 4l-2 2c-4.153.913-8.32 1.747-12.5 2.5-2.008.193-3.508-.474-4.5-2 0-.667.333-1 1-1 .949.652 2.115.986 3.5 1 3.175-.446 6.342-.946 9.5-1.5 1.82-.2 3.153-1.034 4-2.5 2.489.202 4.823-.298 7-1.5a114.965 114.965 0 0 0 12-10 131.702 131.702 0 0 0 17-10c1.266-.31 2.433-.81 3.5-1.5.061 2.651-.773 4.984-2.5 7z"/><path style="opacity:1" fill="#ffa20e" d="M187.5 41.5c1.16 12.16 1.327 24.493.5 37-.519 5.635-2.519 6.635-6 3-4.882-10.795-6.715-22.128-5.5-34 .099 7.654 1.933 14.987 5.5 22 .718.95 1.551 1.117 2.5.5 1.456-2.266 2.29-4.766 2.5-7.5.5-6.992.666-13.992.5-21z"/><path style="opacity:1" fill="#466969" d="M143.5 67.5c-.559 3.443-1.893 6.443-4 9 .575-3.412 1.908-6.412 4-9z"/><path style="opacity:.984" fill="#fd7f0e" d="M192.5 71.5a8508.104 8508.104 0 0 0 6 98l-10 7a443.772 443.772 0 0 1-1.5-23 1994.42 1994.42 0 0 1-9.5-62 230.649 230.649 0 0 0 8.5 30c1.11 1.537 2.61 2.203 4.5 2a378.247 378.247 0 0 0 2-52z"/><path style="opacity:1" fill="#447979" d="M127.5 63.5c-2.968 2.826-5.968 5.66-9 8.5-1.941 1.903-4.274 2.736-7 2.5a103.863 103.863 0 0 1 16-11z"/><path style="opacity:1" fill="#8e250f" d="M164.5 73.5c-3.068 27.871-10.234 54.538-21.5 80-5.091 8.328-11.258 15.828-18.5 22.5a724.532 724.532 0 0 1-30 19.5 5.728 5.728 0 0 1-1-3 374.516 374.516 0 0 0 29-21.5 230.825 230.825 0 0 0 15.5-20.5c11.665-23.828 19.831-48.828 24.5-75 .247-1.213.914-1.88 2-2z"/><path style="opacity:1" fill="#44a6a6" d="M101.5 87.5c-.847 1.466-2.18 2.3-4 2.5a281.573 281.573 0 0 1-9.5 1.5c-1.385-.014-2.551-.348-3.5-1a6.541 6.541 0 0 1 3-3c1.788 1.123 3.788 1.29 6 .5a26.213 26.213 0 0 1 9-3.5v-4c-2.567-.222-4.9-.888-7-2h1c5.08-.35 10.08-.35 15 0a22.021 22.021 0 0 1-6 7.5c-1.558.21-2.891.71-4 1.5z"/><path style="opacity:1" fill="#b1410f" d="M173.5 33.5v5c-.94 7.535-1.94 15.201-3 23a3405.244 3405.244 0 0 1-7.5 64c-2.131 16.219-7.464 31.219-16 45l-8.5 8.5a1019.594 1019.594 0 0 1-38 19.5 124.648 124.648 0 0 1 4-4c29.747-8.916 47.914-28.582 54.5-59a291.23 291.23 0 0 0 6.5-43l4-39 2-18 2-2z"/><path style="opacity:.693" fill="#44cece" d="M95.5 78.5c2.1 1.112 4.433 1.778 7 2v4c-3.22.61-6.22 1.778-9 3.5-2.212.79-4.212.623-6-.5 1.953-3.62 4.62-6.62 8-9z"/><path style="opacity:1" fill="#456161" d="M137.5 81.5c.073 1.527-.594 2.527-2 3-.073-1.527.594-2.527 2-3z"/><path style="opacity:.982" fill="#c83f0f" d="M196.5 54.5c.617.11 1.117.444 1.5 1a2636.658 2636.658 0 0 0 27.5 113l-5-2c-5.492-23.972-10.992-47.972-16.5-72a282.374 282.374 0 0 0-7.5-40z"/><path style="opacity:.989" fill="#4c100e" d="M148.5 73.5c-10.432 31.213-26.266 59.213-47.5 84a328.069 328.069 0 0 1-16.5 14c-1.452 1.44-2.452 3.106-3 5a6.544 6.544 0 0 1-3-3 182.106 182.106 0 0 0 14-10.5c18.484-17.817 32.317-38.65 41.5-62.5 2.043-1.08 3.376-2.746 4-5 2.083-8.123 5.583-15.456 10.5-22z"/><path style="opacity:1" fill="#445252" d="M134.5 79.5c-.492 2.319-1.492 4.319-3 6-.704-1.844-2.037-2.344-4-1.5a276.533 276.533 0 0 1-31 12c-5.417.781-10.75.615-16-.5-.172-.992.162-1.658 1-2 .11.617.444 1.117 1 1.5a42.1 42.1 0 0 0 16-1 296.428 296.428 0 0 1 21-9c3.345-4.013 7.679-6.513 13-7.5 1.213.247 1.88.914 2 2z"/><path style="opacity:1" fill="#443939" d="M129.5 89.5c-.16 1.653-.826 2.986-2 4-.597-.639-1.43-.972-2.5-1a177.556 177.556 0 0 1-41.5 9c1.034 2.341 2.7 4.007 5 5a56.382 56.382 0 0 0 11 14l-6-3a25.615 25.615 0 0 1-6-6c-2.533-3.074-4.533-6.407-6-10a2941.592 2941.592 0 0 0 22-5.5 229.514 229.514 0 0 1 24-8.5c1.213.247 1.88.914 2 2z"/><path style="opacity:1" fill="#456060" d="M134.5 86.5c.271 1.88-.396 3.213-2 4 .16-1.653.826-2.986 2-4z"/><path style="opacity:1" fill="#446767" d="M138.5 71.5c-.826 2.985-2.159 5.651-4 8-.12-1.086-.787-1.753-2-2-5.321.987-9.655 3.487-13 7.5a296.428 296.428 0 0 0-21 9 42.1 42.1 0 0 1-16 1c-.556-.383-.89-.883-1-1.5.333-1 1-1.667 2-2 .992 1.526 2.492 2.193 4.5 2 4.18-.753 8.347-1.587 12.5-2.5l2-2a58.442 58.442 0 0 0 14-4c5.193-8.033 12.526-12.533 22-13.5z"/><path style="opacity:.986" fill="#58130f" d="M169.5 20.5c-3.834 15.833-8.834 31.166-15 46a430.964 430.964 0 0 1-33.5 71c-9.473 14.138-20.973 26.305-34.5 36.5a30.818 30.818 0 0 1-3 4.5c-1-.333-1.667-1-2-2 .548-1.894 1.548-3.56 3-5a328.069 328.069 0 0 0 16.5-14c21.234-24.787 37.068-52.787 47.5-84a372.833 372.833 0 0 1 12.5-32 190.014 190.014 0 0 0 4-15c1.242-2.36 2.742-4.36 4.5-6z"/><path style="opacity:1" fill="#455d5d" d="M132.5 90.5c.039 2.589-.961 4.589-3 6 .492-2.319 1.492-4.319 3-6z"/><path style="opacity:1" fill="#444" d="M131.5 85.5c-.16 1.653-.826 2.986-2 4-.12-1.086-.787-1.753-2-2a229.514 229.514 0 0 0-24 8.5 2941.592 2941.592 0 0 1-22 5.5l-4-2c.238-1.904 1.238-3.238 3-4 5.25 1.115 10.583 1.281 16 .5a276.533 276.533 0 0 0 31-12c1.963-.844 3.296-.344 4 1.5z"/><path style="opacity:1" fill="#442a2a" d="M127.5 93.5a35.68 35.68 0 0 1-4 7c-.47-1.194-1.47-1.86-3-2a425.492 425.492 0 0 1-33 5.5c.752.671 1.086 1.504 1 2.5-2.3-.993-3.966-2.659-5-5a177.556 177.556 0 0 0 41.5-9c1.07.028 1.903.361 2.5 1z"/><path style="opacity:.982" fill="#f9760f" d="M190.5 46.5a219.906 219.906 0 0 1 4 20 720.64 720.64 0 0 1 4.5 52l6.5 47a718.828 718.828 0 0 1-7 4 8508.104 8508.104 0 0 1-6-98 150.845 150.845 0 0 0-2-15v-10z"/><path style="opacity:1" fill="#442424" d="M123.5 100.5c-.16 1.653-.826 2.986-2 4 .085-1.495-.581-2.495-2-3a345.154 345.154 0 0 1-29 4 8553.163 8553.163 0 0 1 13 18c-1.904-.238-3.238-1.238-4-3a56.382 56.382 0 0 1-11-14c.086-.996-.248-1.829-1-2.5a425.492 425.492 0 0 0 33-5.5c1.53.14 2.53.806 3 2z"/><path style="opacity:1" fill="#45605f" d="M129.5 96.5c.039 2.589-.961 4.589-3 6 .154-2.47 1.154-4.47 3-6z"/><path style="opacity:1" fill="#441d1c" d="M121.5 104.5c-.763 1.868-1.763 3.535-3 5-6.924-1.963-14.257-2.63-22-2 2.717 5.744 6.217 11.078 10.5 16 .483.948.649 1.948.5 3-1.904-.238-3.238-1.238-4-3a8553.163 8553.163 0 0 0-13-18 345.154 345.154 0 0 0 29-4c1.419.505 2.085 1.505 2 3z"/><path style="opacity:.988" fill="#6cb2a9" d="M75.5 101.5a25.647 25.647 0 0 0 6 6c-.963 1.833-1.63 3.833-2 6 1.895 16.671-.105 32.838-6 48.5.556.383.89.883 1 1.5-1.705 1.692-3.705 3.025-6 4a181.95 181.95 0 0 0-14 6c-2.254-.624-3.92-1.957-5-4 10.834-12.674 17.667-27.341 20.5-44 .821-7.179.655-14.179-.5-21 1.533-1.745 3.533-2.745 6-3z"/><path style="opacity:1" fill="#4d605e" d="m77.5 99.5 4 2c1.467 3.593 3.467 6.926 6 10a17.9 17.9 0 0 1-6-4 25.647 25.647 0 0 1-6-6c.333-1 1-1.667 2-2z"/><path style="opacity:1" fill="#e46d0f" d="M176.5 21.5v7c-.934 1.068-1.268 2.401-1 4a676.415 676.415 0 0 0-1 52 615.842 615.842 0 0 1 1.5 67c-.55 14.537-4.05 28.204-10.5 41-17.919 5.264-36.253 8.264-55 9a45.733 45.733 0 0 1 9-3 129.852 129.852 0 0 0 35-6.5c4.079-2.075 7.579-4.908 10.5-8.5 5.479-9.246 8.479-19.246 9-30 .33-28.668.163-57.335-.5-86v-34c.136-2.85.469-5.683 1-8.5.108-1.681.775-2.848 2-3.5z"/><path style="opacity:.969" fill="#6dbbb2" d="M69.5 104.5c1.155 6.821 1.321 13.821.5 21-2.833 16.659-9.666 31.326-20.5 44a87.952 87.952 0 0 1-13-9c16.95-13.899 25.95-31.899 27-54 1.797-1.23 3.797-1.896 6-2z"/><path style="opacity:1" fill="#a7390f" d="M165.5 92.5a291.23 291.23 0 0 1-6.5 43c-6.586 30.418-24.753 50.084-54.5 59a124.648 124.648 0 0 0-4 4 10.177 10.177 0 0 1-3 3c-.838-.342-1.172-1.008-1-2 1.114-2.949 3.114-5.115 6-6.5 27.594-9.928 45.094-29.095 52.5-57.5 3.34-14.577 6.84-28.91 10.5-43z"/><path style="opacity:1" fill="#441515" d="M118.5 109.5a218.713 218.713 0 0 1-10 17h-1a4.934 4.934 0 0 0-.5-3c-4.283-4.922-7.783-10.256-10.5-16 7.743-.63 15.076.037 22 2z"/><path style="opacity:.961" fill="#6dc9c0" d="M63.5 106.5c-1.05 22.101-10.05 40.101-27 54a6624.494 6624.494 0 0 1-18-13c18.294-5.96 29.627-18.293 34-37a75.646 75.646 0 0 1 11-4z"/><path style="opacity:.981" fill="#ee690f" d="M194.5 66.5a1948.36 1948.36 0 0 0 16 98c-1.419.951-3.085 1.284-5 1l-6.5-47a720.64 720.64 0 0 0-4.5-52z"/><path style="opacity:1" fill="#6ca59c" d="M81.5 107.5a17.9 17.9 0 0 0 6 4 25.615 25.615 0 0 0 6 6c-.421 8.33.246 16.663 2 25-1.13 1.122-1.797 2.456-2 4a232.077 232.077 0 0 1-19 17c-.11-.617-.444-1.117-1-1.5 5.895-15.662 7.895-31.829 6-48.5.37-2.167 1.037-4.167 2-6z"/><path style="opacity:1" fill="#d35e0f" d="M173.5 38.5v29a5452.54 5452.54 0 0 1-2.5 81 304.77 304.77 0 0 1-2 13c-2.929 16.745-12.429 27.579-28.5 32.5a332.19 332.19 0 0 0-21 4.5 45.733 45.733 0 0 0-9 3c-4.247-.03-7.914 1.304-11 4-.838-.342-1.172-1.008-1-2 1.074-1.385 2.407-2.551 4-3.5 2.957-.279 5.623-1.113 8-2.5a123.104 123.104 0 0 0 36-11.5c5.778-4.057 10.278-9.223 13.5-15.5a280.526 280.526 0 0 0 8-32 541.971 541.971 0 0 0 2.5-62v-15c1.06-7.799 2.06-15.465 3-23z"/><path style="opacity:.938" fill="#eb730f" d="M174.5 84.5h1c3.246 34.372 3.58 69.039 1 104a168.386 168.386 0 0 1-20 23c-1.087-3.915-3.42-6.748-7-8.5a361.07 361.07 0 0 0-38 0c-3.535.663-6.535 2.163-9 4.5h-2c-.838-.342-1.172-1.008-1-2 3.086-2.696 6.753-4.03 11-4 18.747-.736 37.081-3.736 55-9 6.45-12.796 9.95-26.463 10.5-41a615.842 615.842 0 0 0-1.5-67z"/><path style="opacity:.928" fill="#6dd7cd" d="M52.5 110.5c-4.373 18.707-15.706 31.04-34 37a292.743 292.743 0 0 1-19-13v-2l53-22z"/><path style="opacity:.969" fill="#f2770f" d="M175.5 84.5c1.424 2.014 2.09 4.348 2 7a1994.42 1994.42 0 0 0 9.5 62c.319 7.957.819 15.623 1.5 23a102.102 102.102 0 0 1-12 12c2.58-34.961 2.246-69.628-1-104z"/><path style="opacity:1" fill="#d1490f" d="m186.5 22.5 4 4a815.74 815.74 0 0 1 6 28 282.374 282.374 0 0 1 7.5 40c5.508 24.028 11.008 48.028 16.5 72a26.335 26.335 0 0 1-5-2 1314.634 1314.634 0 0 1-16.5-92c-.24-2.352-1.073-4.352-2.5-6a172.508 172.508 0 0 0-3.5-21c-.578-3.072-1.745-5.739-3.5-8a48.552 48.552 0 0 0-3-15z"/><path style="opacity:1" fill="#68928a" d="m93.5 117.5 6 3c.762 1.762 2.096 2.762 4 3 .762 1.762 2.096 2.762 4 3h1c-3.552 7.779-8.552 14.445-15 20 .203-1.544.87-2.878 2-4-1.754-8.337-2.421-16.67-2-25z"/><path style="opacity:.989" fill="#e55e0f" d="M189.5 37.5c1.755 2.261 2.922 4.928 3.5 8a172.508 172.508 0 0 1 3.5 21 2083.51 2083.51 0 0 0 8.5 55 447.255 447.255 0 0 1 9.5 43h-4a1948.36 1948.36 0 0 1-16-98 219.906 219.906 0 0 0-4-20c-.977-2.787-1.31-5.787-1-9z"/><path style="opacity:1" fill="#9d310f" d="m169.5 53.5-4 39c-3.66 14.09-7.16 28.423-10.5 43-7.406 28.405-24.906 47.572-52.5 57.5-2.886 1.385-4.886 3.551-6 6.5-.845-1.171-1.511-2.505-2-4a724.532 724.532 0 0 0 30-19.5c7.242-6.672 13.409-14.172 18.5-22.5 11.266-25.462 18.432-52.129 21.5-80 1.578-6.12 2.745-12.454 3.5-19 .383-.556.883-.89 1.5-1z"/><path style="opacity:1" fill="#c6530f" d="M170.5 76.5a541.971 541.971 0 0 1-2.5 62 280.526 280.526 0 0 1-8 32c-3.222 6.277-7.722 11.443-13.5 15.5a123.104 123.104 0 0 1-36 11.5c-.03-.997.47-1.664 1.5-2 12.754-3.544 24.421-9.211 35-17 10.291-13.521 16.291-28.855 18-46a1257.669 1257.669 0 0 0 5.5-56z"/><path style="opacity:1" fill="#455251" d="M126.5 102.5c-7.915 16.847-17.582 32.513-29 47l1-4a489.688 489.688 0 0 0 28-43z"/><path style="opacity:1" fill="#bc4b0f" d="M170.5 61.5v15a1257.669 1257.669 0 0 1-5.5 56c-1.709 17.145-7.709 32.479-18 46-10.579 7.789-22.246 13.456-35 17-1.03.336-1.53 1.003-1.5 2-2.377 1.387-5.043 2.221-8 2.5-1.593.949-2.926 2.115-4 3.5-.838-.342-1.172-1.008-1-2a10.177 10.177 0 0 0 3-3 1019.594 1019.594 0 0 0 38-19.5l8.5-8.5c8.536-13.781 13.869-28.781 16-45a3405.244 3405.244 0 0 0 7.5-64z"/><path style="opacity:1" fill="#da530f" d="M196.5 66.5c1.427 1.648 2.26 3.648 2.5 6a1314.634 1314.634 0 0 0 16.5 92h-1a447.255 447.255 0 0 0-9.5-43 2083.51 2083.51 0 0 1-8.5-55z"/><path style="opacity:1" fill="#4a7877" d="M93.5 146.5a5.728 5.728 0 0 0-1 3 209.797 209.797 0 0 1-25 22l-6 2a42.527 42.527 0 0 1 7-6c2.295-.975 4.295-2.308 6-4a232.077 232.077 0 0 0 19-17z"/><path style="opacity:1" fill="#4aa" d="M92.5 149.5c.667 0 1 .333 1 1l-19 22c-2.217-.869-4.55-1.202-7-1a209.797 209.797 0 0 0 25-22z"/><path style="opacity:1" fill="#444140" d="M97.5 149.5a79.839 79.839 0 0 1-6.5 9c-5.155 4.309-9.322 9.309-12.5 15-.992.172-1.658-.162-2-1a343.47 343.47 0 0 1 21-23z"/><path style="opacity:1" fill="#446f6f" d="m98.5 145.5-1 4a343.47 343.47 0 0 0-21 23h-2l19-22a28.071 28.071 0 0 0 5-5z"/><path style="opacity:1" fill="#58dcd7" d="M68.5 167.5a42.527 42.527 0 0 0-7 6c-2.483 2.457-4.816 2.457-7 0a181.95 181.95 0 0 1 14-6z"/><path style="opacity:.97" fill="#f9820f" d="M156.5 211.5a1526.925 1526.925 0 0 0-5 6c-1.552-8.128-6.552-11.962-15-11.5-11.503-2.385-22.836-1.885-34 1.5 2.465-2.337 5.465-3.837 9-4.5a361.07 361.07 0 0 1 38 0c3.58 1.752 5.913 4.585 7 8.5z"/><path style="opacity:.981" fill="#fe8f0e" d="M151.5 217.5c-.79.901-1.79 1.568-3 2a55.813 55.813 0 0 0-5.5-8c-10.433-4.353-21.266-5.853-32.5-4.5-3.302.661-6.302 1.828-9 3.5-.904-.709-1.237-1.709-1-3h2c11.164-3.385 22.497-3.885 34-1.5 8.448-.462 13.448 3.372 15 11.5z"/><path style="opacity:.97" fill="#ff9c0e" d="M148.5 219.5a6.547 6.547 0 0 1-3 3 1142.218 1142.218 0 0 1-5-8c-11.498-6.063-23.498-7.397-36-4-1.213.247-1.88.914-2 2-.838-.342-1.172-1.008-1-2 2.698-1.672 5.698-2.839 9-3.5 11.234-1.353 22.067.147 32.5 4.5a55.813 55.813 0 0 1 5.5 8z"/><path style="opacity:.959" fill="#ffac0e" d="M145.5 222.5c-1.085 2.087-2.751 3.42-5 4-2.264-6.97-6.93-11.47-14-13.5a100.2 100.2 0 0 0-20 0l-3 1.5c-.838-.342-1.172-1.008-1-2 .12-1.086.787-1.753 2-2 12.502-3.397 24.502-2.063 36 4 1.692 2.731 3.358 5.398 5 8z"/><path style="opacity:.961" fill="#ffbf0e" d="M140.5 226.5c-.333 1-1 1.667-2 2-1.314-6.648-5.314-10.648-12-12-.886-.825-1.219-1.825-1-3a64.873 64.873 0 0 0-16 1c-1.86.825-3.526 1.825-5 3-.904-.709-1.237-1.709-1-3l3-1.5a100.2 100.2 0 0 1 20 0c7.07 2.03 11.736 6.53 14 13.5z"/><path style="opacity:.954" fill="#ffca0e" d="M138.5 228.5c-.342.838-1.008 1.172-2 1-1.482-4.148-3.815-7.648-7-10.5-8.352-4.276-16.686-4.442-25-.5v-1c1.474-1.175 3.14-2.175 5-3a64.873 64.873 0 0 1 16-1c-.219 1.175.114 2.175 1 3 6.686 1.352 10.686 5.352 12 12z"/><path style="opacity:.948" fill="#ffd60e" d="M136.5 229.5c0 1.333-.667 2-2 2a32.128 32.128 0 0 0-3-7 140.702 140.702 0 0 1-9.5-6c-5.896-2.004-11.062-1.004-15.5 3-.901-.79-1.568-1.79-2-3 8.314-3.942 16.648-3.776 25 .5 3.185 2.852 5.518 6.352 7 10.5z"/><path style="opacity:.912" fill="#ffe10e" d="m134.5 231.5-2 1c-.252-6.424-3.586-10.257-10-11.5-5.604-2.942-9.604-1.608-12 4a57.956 57.956 0 0 1 9 13.5c-.667 0-1 .333-1 1h-1c-.667-4-3-6.333-7-7a76.135 76.135 0 0 1-4-11c4.438-4.004 9.604-5.004 15.5-3a140.702 140.702 0 0 0 9.5 6 32.128 32.128 0 0 1 3 7z"/><path style="opacity:.971" fill="#fff20e" d="M132.5 232.5c-.79.901-1.79 1.568-3 2-.882-6.524-4.549-9.69-11-9.5l-2 2a108.624 108.624 0 0 1 5 10.5c-.342.838-1.008 1.172-2 1a57.956 57.956 0 0 0-9-13.5c2.396-5.608 6.396-6.942 12-4 6.414 1.243 9.748 5.076 10 11.5z"/><path style="opacity:.925" fill="#fffd0e" d="M129.5 234.5a20.532 20.532 0 0 1-8 3 108.624 108.624 0 0 0-5-10.5l2-2c6.451-.19 10.118 2.976 11 9.5z"/><path style="opacity:.557" fill="#ffcb0e" d="M110.5 232.5c4 .667 6.333 3 7 7h-4a32.508 32.508 0 0 1-3-7z"/></svg>